<?xml version="1.0" encoding="UTF-8"?>
<!DOCTYPE svg PUBLIC "-//W3C//DTD SVG 1.1//EN" "http://www.w3.org/Graphics/SVG/1.1/DTD/svg11.dtd">
<!-- Creator: CorelDRAW 2018 -->
<svg xmlns="http://www.w3.org/2000/svg" xml:space="preserve" width="210mm" height="297mm" version="1.1" style="shape-rendering:geometricPrecision; text-rendering:geometricPrecision; image-rendering:optimizeQuality; fill-rule:evenodd; clip-rule:evenodd"
viewBox="0 0 21000 29700"
 xmlns:xlink="http://www.w3.org/1999/xlink">
 <defs>
  <style type="text/css">
   <![CDATA[
    .str0 {stroke:black;stroke-width:7.62;stroke-miterlimit:22.9256}
    .fil0 {fill:#7F3E98}
   ]]>
  </style>
 </defs>
 <g id="Слой_x0020_1">
  <metadata id="CorelCorpID_0Corel-Layer"/>
  <path class="fil0 str0" d="M2512.47 8708.43l2116.66 0c-129.4,-193.24 -385.36,-361.52 -655.66,-720.17 -1037.46,-1376.56 -1007.24,-3245.71 -35.5,-4486.54 877.05,-1119.93 2656.52,-1578.54 3902.03,-755.82 397.72,262.72 646.12,591.09 858.11,1011.61 666.52,1322.15 -42.4,3139.11 -1663.55,3369.97 -577.25,82.21 -1068.55,-101.07 -1391.4,-385.58 -666.55,-587.4 -789.1,-1944.95 161.07,-2467.52 1403.93,-772.13 2151.71,1117.95 800.45,1117.95l0 458.61 1128.89 0 0 -2222.5 -2751.96 -0.3c-511.51,-4.9 -388.16,-6.68 -387.76,529.46 0.9,1222.95 0,2445.94 0,3668.89l4974.16 0 0 -6173.6 -7055.54 0 0 7055.54z"/>
 </g>
</svg>
