<?xml version="1.0" encoding="utf-8"?>
<!-- Generator: Adobe Illustrator 12.0.0, SVG Export Plug-In  -->
<!DOCTYPE svg PUBLIC "-//W3C//DTD SVG 1.1//EN" "http://www.w3.org/Graphics/SVG/1.1/DTD/svg11.dtd" [
	<!ENTITY ns_flows "http://ns.adobe.com/Flows/1.0/">
	<!ENTITY ns_svg "http://www.w3.org/2000/svg">
	<!ENTITY ns_xlink "http://www.w3.org/1999/xlink">
]>
<svg  version="1.1" xmlns="&ns_svg;" xmlns:xlink="&ns_xlink;" xmlns:a="http://ns.adobe.com/AdobeSVGViewerExtensions/3.0/"
	 width="407" height="496" viewBox="-206.5 -0.5 407 496" enable-background="new -206.5 -0.5 407 496" xml:space="preserve">
<defs>
</defs>
<path fill="#327810" d="M0,200h60c-3.668-5.478-10.924-10.248-18.586-20.414c-29.408-39.021-28.552-92.005-1.006-127.178
	C65.27,20.662,115.711,7.662,151.017,30.983c11.274,7.447,18.315,16.755,24.324,28.676c18.894,37.478-1.201,88.982-47.155,95.526
	c-16.363,2.33-30.29-2.865-39.441-10.93C69.85,127.604,66.376,89.123,93.31,74.311C133.106,52.423,154.303,106,116,106v13h32V56
	l-78.009-0.009C55.492,55.853,58.988,55.802,59,71c0.025,34.666,0,69.334,0,104h141V0H0V200L0,200z"/>
</svg>
